<?xml version="1.0" encoding="UTF-8"?>
<svg width="500px" height="500px" viewBox="0 0 500 500" version="1.1" xmlns="http://www.w3.org/2000/svg" xmlns:xlink="http://www.w3.org/1999/xlink">
    <title>Artboard</title>
    <g id="Artboard" stroke="none" stroke-width="1" fill="none" fill-rule="evenodd">
        <g id="NYJ-Mark-1-RGB">
            <polygon id="Path" points="0 0 500 0 500 500 0 500"></polygon>
            <g id="Group" transform="translate(40.084686, 129.200000)" fill="#115740" fill-rule="nonzero">
                <path d="M219.615314,166.1 C218.815314,166.1 218.015314,166.1 217.115314,166.1 C216.915314,166.3 216.715314,166.6 216.515314,166.8 C216.815314,171.3 216.815314,175.7 216.515314,180.2 C216.715314,180.4 216.915314,180.7 217.115314,180.9 C217.915314,180.9 218.715314,180.9 219.615314,180.9 C219.915314,180.7 220.115314,180.4 220.415314,180.2 C220.915314,175.8 220.915314,171.4 220.415314,167 C220.115314,166.6 219.815314,166.3 219.615314,166.1 Z" id="Path"></path>
                <path d="M203.815314,166.1 C203.015314,166.1 202.215314,166.1 201.315314,166.1 C201.015314,166.3 200.815314,166.6 200.515314,166.8 C200.015314,171.2 200.015314,175.6 200.515314,180 C200.815314,180.2 201.015314,180.5 201.315314,180.7 C202.115314,180.7 202.915314,180.7 203.815314,180.7 C204.015314,180.5 204.215314,180.2 204.415314,180 C204.115314,175.5 204.115314,171.1 204.415314,166.6 C204.315314,166.5 204.015314,166.3 203.815314,166.1 Z" id="Path"></path>
                <path d="M211.715314,166 C210.915314,166 210.115314,166 209.215314,166 C209.015314,166.2 208.715314,166.5 208.515314,166.7 C208.415314,171.2 208.415314,175.6 208.515314,180.1 C208.715314,180.3 209.015314,180.6 209.215314,180.8 C210.015314,180.8 210.815314,180.8 211.715314,180.8 C211.915314,180.6 212.215314,180.3 212.415314,180.1 C212.515314,175.6 212.515314,171.2 212.415314,166.7 C212.215314,166.5 211.915314,166.3 211.715314,166 Z" id="Path"></path>
                <path d="M247.315314,73.7 C248.115314,73.7 248.815314,73.5 249.315314,73 C249.815314,72.6 250.315314,71.9 250.815314,71 L253.715314,65.6 C254.115314,64.8 254.315314,64.2 254.315314,63.6 C254.315314,62.6 253.715314,62.2 252.615314,62.2 C251.815314,62.2 251.115314,62.4 250.615314,62.8 C250.115314,63.2 249.615314,63.9 249.115314,64.9 L246.215314,70.3 C245.815314,71.1 245.615314,71.7 245.615314,72.3 C245.615314,73.3 246.115314,73.7 247.315314,73.7 Z" id="Path"></path>
                <path d="M419.115314,109.4 C411.615314,84.4 378.915314,54.6 331.615314,29.8 C289.815314,7.8 240.515314,-2.84217094e-14 210.715314,-2.84217094e-14 C210.515314,-2.84217094e-14 210.315314,-2.84217094e-14 210.215314,-2.84217094e-14 L209.815314,-2.84217094e-14 C209.615314,-2.84217094e-14 209.515314,-2.84217094e-14 209.315314,-2.84217094e-14 C179.515314,-2.84217094e-14 130.215314,7.8 88.4153144,29.8 C41.1153144,54.6 8.51531437,84.4 0.915314371,109.4 C0.315314371,113 -0.0846856285,116.7 0.0153143715,120.4 L0.0153143715,120.5 L0.0153143715,120.6 C0.0153143715,124.3 0.315314371,128 0.915314371,131.6 C8.41531437,156.6 41.1153144,186.4 88.4153144,211.2 C130.515314,233.3 180.115314,241.1 209.815314,241.000948 L210.215314,241.000948 C210.415314,241.000948 210.515314,241.000948 210.715314,241.000948 C240.515314,241.000948 289.815314,233.2 331.615314,211.2 C378.915314,186.4 411.515314,156.6 419.115314,131.6 C419.715314,128 420.115314,124.3 420.015314,120.6 L420.015314,120.5 C420.115314,116.7 419.715314,113 419.115314,109.4 Z M321.115314,57.4 L316.015314,67 L326.515314,57.4 L338.315314,57.4 L326.615314,67.7 L327.915314,78.5 L315.415314,78.5 L314.815314,69.1 L309.815314,78.5 L296.815314,78.5 L308.015314,57.4 L321.115314,57.4 Z M293.715314,57.4 C296.315314,57.4 298.115314,57.9 299.215314,58.9 C299.915314,59.6 300.315314,60.7 300.315314,62 C300.315314,64.1 299.615314,65.8 298.115314,67.3 C297.315314,68.1 296.515314,68.7 295.715314,69 C294.915314,69.3 293.915314,69.6 292.515314,69.8 C294.515314,70.4 295.515314,71.4 295.515314,72.7 C295.515314,73.4 295.215314,74.3 294.715314,75.2 L293.015314,78.4 L280.215314,78.4 L282.415314,74.3 C282.715314,73.8 282.815314,73.3 282.815314,72.9 C282.815314,72 282.215314,71.6 281.115314,71.6 L279.315314,71.6 L275.715314,78.5 L263.015314,78.5 L274.215314,57.4 L293.715314,57.4 L293.715314,57.4 Z M263.715314,58.4 C265.815314,59.4 266.815314,60.9 266.815314,62.9 C266.815314,64.4 266.315314,66.1 265.315314,68.2 C263.815314,71.2 262.315314,73.5 260.815314,75 C258.115314,77.7 253.415314,79.1 246.615314,79.1 C241.815314,79.1 238.315314,78.6 236.115314,77.5 C234.015314,76.5 233.015314,75 233.015314,73 C233.015314,71.5 233.515314,69.8 234.515314,67.7 C236.015314,64.7 237.515314,62.4 239.015314,60.9 C241.715314,58.2 246.415314,56.8 253.215314,56.8 C258.015314,56.9 261.515314,57.4 263.715314,58.4 Z M208.615314,57.4 L221.515314,57.4 L221.315314,63.9 L227.815314,57.4 L239.615314,57.4 L222.715314,72 L219.215314,78.5 L205.815314,78.5 L209.515314,71.6 L208.615314,57.4 Z M166.915314,57.4 L164.415314,67.2 L171.715314,57.4 L183.715314,57.4 L180.915314,67.3 L188.515314,57.4 L200.015314,57.4 L181.115314,78.5 L168.415314,78.5 L170.415314,70.3 L163.515314,78.5 L150.815314,78.5 L154.815314,57.4 L166.915314,57.4 Z M152.515314,57.4 L149.715314,62.7 L136.815314,62.7 L135.415314,65.3 L147.415314,65.3 L144.715314,70.5 L132.815314,70.5 L131.315314,73.2 L144.615314,73.2 L141.815314,78.5 L116.315314,78.5 L127.515314,57.4 L152.515314,57.4 Z M93.9153144,57.4 L105.515314,57.4 L107.515314,66.4 L112.215314,57.4 L122.515314,57.4 L111.315314,78.5 L100.315314,78.5 L98.2153144,68.7 L93.1153144,78.5 L82.8153144,78.5 L93.9153144,57.4 Z M83.1153144,155.3 C59.8153144,155.3 50.1153144,149.7 50.1153144,139.3 C50.1153144,134 51.4153144,130.2 54.6153144,124.4 L58.3153144,117.4 L88.5153144,117.4 L81.0153144,131.7 C80.1153144,133.5 79.3153144,135.5 79.3153144,136.9 C79.3153144,138.9 80.3153144,140.4 82.9153144,140.4 C86.8153144,140.4 88.8153144,137.8 91.4153144,133 L110.615314,96.4 L146.015314,96.4 L130.015314,127.1 C125.415314,135.7 122.515314,140.5 118.015314,145.1 C111.215314,151.8 99.9153144,155.3 83.1153144,155.3 Z M151.815314,96.4 L220.115314,96.4 L212.415314,110.9 L177.515314,110.9 L173.615314,117.9 L208.915314,117.9 L201.415314,132 L166.215314,132 L162.215314,139.3 L198.315314,139.3 L198.115314,139.6 C192.215314,140.6 184.915314,142.6 177.715314,146.4 C173.315314,148.7 169.315314,151.2 166.015314,153.8 L121.315314,153.8 L151.815314,96.4 Z M224.415314,180 C224.615314,180.2 224.815314,180.5 225.015314,180.7 C225.815314,180.7 226.615314,180.6 227.515314,180.6 C227.815314,180.4 228.115314,180.1 228.315314,179.9 C228.615314,178.6 228.815314,177.2 228.915314,175.9 C231.515314,175.9 234.015314,175.8 236.615314,175.7 C244.915314,175.5 253.215314,175.2 261.515314,174.6 L262.915314,176.3 L262.915314,176.3 L262.915314,176.3 C261.015314,182.7 253.115314,190.3 240.615314,196.8 C229.315314,202.7 216.615314,204.3 210.215314,204.3 C210.115314,204.3 210.115314,204.3 210.015314,204.3 C210.015314,204.3 209.915314,204.3 209.915314,204.3 C209.915314,204.3 209.915314,204.3 209.815314,204.3 L209.815314,204.3 C203.415314,204.3 190.615314,202.7 179.315314,196.8 C166.915314,190.3 159.015314,182.7 157.115314,176.3 L158.515314,174.6 C166.815314,175.2 175.115314,175.5 183.415314,175.7 C186.315314,175.8 189.115314,175.8 192.015314,175.9 C192.115314,177.2 192.315314,178.6 192.615314,179.9 C192.915314,180.1 193.215314,180.4 193.415314,180.6 C194.215314,180.6 195.015314,180.7 195.915314,180.7 C196.115314,180.5 196.315314,180.2 196.515314,180 C195.715314,175.7 195.715314,171.3 196.515314,167 C196.315314,166.8 196.115314,166.5 195.915314,166.3 C195.115314,166.3 194.315314,166.4 193.415314,166.4 C193.115314,166.6 192.815314,166.9 192.615314,167.1 C192.315314,168.4 192.115314,169.8 192.015314,171.1 C189.115314,171.1 186.315314,171.2 183.415314,171.3 C175.115314,171.5 166.815314,171.8 158.515314,172.4 L157.015314,170.6 C157.015314,170.4 157.015314,170.3 157.115314,170.1 C159.015314,163.7 166.915314,156.1 179.415314,149.5 C190.715314,143.5 203.515314,142 209.915314,142 C209.915314,142 209.915314,142 210.015314,142 C210.015314,142 210.115314,142 210.115314,142 C210.215314,142 210.215314,142 210.315314,142 C216.715314,142 229.415314,143.5 240.715314,149.5 C253.215314,156 261.115314,163.7 263.015314,170 C263.015314,170.2 263.115314,170.4 263.115314,170.6 L261.615314,172.4 C253.315314,171.8 245.015314,171.5 236.715314,171.3 C234.115314,171.2 231.615314,171.2 229.015314,171.1 C228.915314,169.8 228.715314,168.4 228.415314,167.1 C228.115314,166.9 227.815314,166.6 227.615314,166.4 C226.815314,166.4 226.015314,166.3 225.115314,166.3 C224.915314,166.5 224.715314,166.8 224.515314,167 C225.215314,171.3 225.215314,175.6 224.415314,180 Z M252.015314,152.3 C249.115314,150.2 245.815314,148.2 242.215314,146.3 C235.315314,142.7 228.215314,140.7 222.415314,139.7 L237.715314,111.1 L218.215314,111.1 L226.015314,96.5 L299.415314,96.5 L291.615314,111.1 L274.015314,111.1 L252.015314,152.3 Z M368.215314,115.7 L340.015314,115.7 C340.715314,114.3 341.215314,113.1 341.215314,111.4 C341.215314,109.4 338.915314,107.9 334.815314,107.9 C329.715314,107.9 327.115314,110 327.115314,112.4 C327.115314,114.4 329.415314,115.2 341.615314,118.1 C353.815314,121 358.215314,123.7 358.215314,130.3 C358.215314,135.7 355.815314,141.2 351.115314,145.9 C345.215314,151.8 336.515314,155.4 314.815314,155.4 C289.115314,155.4 281.615314,151.2 281.615314,142.4 C281.615314,139.8 282.215314,137.1 283.715314,134.1 L312.515314,134.1 C311.715314,135.8 311.315314,137.2 311.315314,138.8 C311.315314,141 313.415314,142.4 317.915314,142.4 C322.815314,142.4 325.715314,140.6 325.715314,137.6 C325.715314,134.8 323.215314,134.2 310.215314,130.9 C298.115314,127.8 294.615314,125.5 294.615314,119 C294.615314,114.6 297.015314,109.2 301.515314,104.7 C307.815314,98.4 316.615314,95 337.815314,95 C361.315314,95 369.815314,98.7 369.815314,107.7 C369.915314,110.7 369.415314,113 368.215314,115.7 Z" id="Shape"></path>
                <path d="M286.115314,65.9 L286.615314,64.9 C286.815314,64.5 286.915314,64.1 286.915314,63.7 C286.915314,63 286.515314,62.7 285.615314,62.7 L283.715314,62.7 L281.015314,67.6 L283.415314,67.6 C284.615314,67.7 285.515314,67.1 286.115314,65.9 Z" id="Path"></path>
            </g>
            <path d="M315.7,207.7 L319.3,200.8 L321.1,200.8 C322.3,200.8 322.8,201.2 322.8,202.1 C322.8,202.5 322.7,203 322.4,203.5 L320.2,207.6 L333,207.6 L334.7,204.4 C335.2,203.4 335.5,202.6 335.5,201.9 C335.5,200.6 334.5,199.6 332.5,199 C333.9,198.8 334.9,198.5 335.7,198.2 C336.5,197.8 337.4,197.2 338.1,196.5 C339.6,195 340.3,193.3 340.3,191.2 C340.3,189.9 339.9,188.8 339.2,188.1 C338.2,187.1 336.4,186.6 333.7,186.6 L314.2,186.6 L303,207.7 L315.7,207.7 L315.7,207.7 Z M323.9,192 L325.8,192 C326.7,192 327.1,192.3 327.1,193 C327.1,193.3 327,193.7 326.8,194.2 L326.3,195.2 C325.7,196.4 324.8,197 323.7,197 L321.3,197 L323.9,192 Z M203.6,207.7 L210.5,199.5 L208.5,207.7 L221.2,207.7 L240.1,186.6 L228.6,186.6 L221,196.5 L223.8,186.6 L211.8,186.6 L204.5,196.4 L207,186.6 L194.8,186.6 L190.8,207.7 L203.6,207.7 Z M274.6,196.9 C273.6,198.9 273.1,200.7 273.1,202.2 C273.1,204.2 274.1,205.7 276.2,206.7 C278.4,207.8 281.9,208.3 286.7,208.3 C293.4,208.3 298.2,206.9 300.9,204.2 C302.4,202.7 303.9,200.4 305.4,197.4 C306.4,195.4 306.9,193.6 306.9,192.1 C306.9,190.1 305.9,188.6 303.8,187.6 C301.6,186.5 298.1,186 293.3,186 C286.6,186 281.8,187.4 279.1,190.1 C277.6,191.7 276.1,193.9 274.6,196.9 Z M286.3,199.5 L289.2,194.1 C289.7,193.1 290.2,192.5 290.7,192 C291.2,191.6 291.9,191.4 292.7,191.4 C293.8,191.4 294.4,191.9 294.4,192.8 C294.4,193.3 294.2,194 293.8,194.8 L290.9,200.2 C290.4,201.2 289.9,201.8 289.4,202.2 C288.9,202.7 288.2,202.9 287.4,202.9 C286.3,202.9 285.7,202.4 285.7,201.5 C285.7,201 285.9,200.3 286.3,199.5 Z M259.3,207.7 L262.8,201.2 L279.7,186.6 L267.9,186.6 L261.4,193.1 L261.6,186.6 L248.7,186.6 L249.6,200.8 L245.9,207.7 L259.3,207.7 Z M181.7,207.7 L184.5,202.4 L171.2,202.4 L172.7,199.7 L184.6,199.7 L187.3,194.5 L175.3,194.5 L176.7,191.9 L189.6,191.9 L192.4,186.6 L167.3,186.6 L156.1,207.7 L181.7,207.7 Z M349.9,207.7 L354.9,198.3 L355.5,207.7 L368,207.7 L366.7,196.9 L378.4,186.6 L366.6,186.6 L356.1,196.2 L361.2,186.6 L348.2,186.6 L337,207.7 L349.9,207.7 Z M339.6,225.6 L266.2,225.6 L258.4,240.2 L277.8,240.2 L262.5,268.8 C268.3,269.9 275.4,271.8 282.3,275.4 C285.9,277.3 289.2,279.3 292.1,281.4 L314.1,240.2 L331.8,240.2 L339.6,225.6 Z M138.1,197.9 L140.2,207.7 L151.2,207.7 L162.4,186.6 L152.1,186.6 L147.4,195.6 L145.4,186.6 L133.8,186.6 L122.6,207.7 L132.9,207.7 L138.1,197.9 Z M470.9,236.1 L470.8,235.5 C462.4,206.9 428.3,175.2 377.3,148.4 C333.5,125.4 282,117.3 250.8,117.3 C250.6,117.3 250.4,117.3 250.2,117.3 L249.8,117.3 C249.6,117.3 249.5,117.3 249.3,117.3 C218.1,117.3 166.6,125.4 122.8,148.4 C71.8,175.2 37.7,207 29.3,235.5 L29.2,236.1 C28.4,240.5 28,245.1 28,249.7 C28,254.3 28.4,258.9 29.2,263.3 L29.3,263.9 C37.7,292.5 71.8,324.2 122.8,351 C166.6,374 218.1,382.1 249.3,382.1 C249.5,382.1 249.7,382.1 249.8,382.1 L250.2,382.1 C250.4,382.1 250.5,382.1 250.7,382.1 C281.9,382.1 333.4,374 377.2,351 C428.2,324.2 462.3,292.4 470.7,263.9 L470.8,263.3 C471.6,258.9 472,254.3 472,249.7 C472.2,245.1 471.8,240.5 470.9,236.1 Z M460.1,249.7 C460.1,253.4 459.8,257.1 459.2,260.7 C451.7,285.7 419,315.5 371.7,340.3 C329.9,362.3 280.6,370.10096 250.8,370.10096 C250.6,370.10096 250.5,370.10096 250.3,370.10096 L249.9,370.10096 C220.2,370.2 170.5,362.5 128.5,340.3 C81.2,315.5 48.6,285.7 41,260.7 C40.4,257.1 40,253.4 40.1,249.7 L40.1,249.6 L40.1,249.5 C40.1,245.8 40.4,242.1 41,238.5 C48.5,213.5 81.2,183.7 128.5,158.9 C170.3,136.9 219.6,129.1 249.4,129.1 C249.6,129.1 249.7,129.1 249.9,129.1 L250.3,129.1 C250.5,129.1 250.7,129.1 250.8,129.1 C280.6,129.1 329.9,136.9 371.7,158.9 C419,183.7 451.6,213.5 459.2,238.5 C459.8,242.1 460.2,245.8 460.1,249.5 L460.1,249.7 Z M267.5,295.5 C267.8,295.7 268.1,296 268.3,296.2 C268.6,297.5 268.8,298.9 268.9,300.2 C271.5,300.2 274,300.3 276.6,300.4 C284.9,300.6 293.2,300.9 301.5,301.5 L303,299.7 C303,299.5 302.9,299.3 302.9,299.1 C301,292.7 293.1,285.1 280.6,278.6 C269.3,272.7 256.6,271.1 250.2,271.1 C250.1,271.1 250.1,271.1 250,271.1 C250,271.1 249.9,271.1 249.9,271.1 C249.9,271.1 249.9,271.1 249.8,271.1 C243.4,271.1 230.6,272.7 219.3,278.6 C206.8,285.2 198.9,292.8 197,299.2 C197,299.4 196.9,299.5 196.9,299.7 L198.4,301.5 C206.7,300.9 215,300.6 223.3,300.4 C226.2,300.3 229,300.3 231.9,300.2 C232,298.9 232.2,297.5 232.5,296.2 C232.8,296 233.1,295.7 233.3,295.5 C234.1,295.5 234.9,295.4 235.8,295.4 C236,295.6 236.2,295.9 236.4,296.1 C235.6,300.4 235.6,304.8 236.4,309.1 C236.2,309.3 236,309.6 235.8,309.8 C235,309.8 234.2,309.7 233.3,309.7 C233,309.5 232.7,309.2 232.5,309 C232.2,307.7 232,306.3 231.9,305 C229,305 226.2,304.9 223.3,304.8 C215,304.6 206.7,304.3 198.4,303.7 L197,305.4 C198.9,311.8 206.8,319.3 219.2,325.9 C230.5,331.9 243.3,333.4 249.7,333.4 L249.7,333.4 C249.7,333.4 249.7,333.4 249.8,333.4 C249.8,333.4 249.9,333.4 249.9,333.4 C250,333.4 250,333.4 250.1,333.4 C256.5,333.4 269.2,331.9 280.5,325.9 C293,319.4 300.9,311.7 302.8,305.4 L302.8,305.4 L302.8,305.4 L301.4,303.7 C293.1,304.3 284.8,304.6 276.5,304.8 C273.9,304.9 271.4,304.9 268.8,305 C268.7,306.3 268.5,307.7 268.2,309 C267.9,309.2 267.6,309.5 267.4,309.7 C266.6,309.7 265.8,309.8 264.9,309.8 C264.7,309.6 264.5,309.3 264.3,309.1 C265.1,304.8 265.1,300.4 264.3,296.1 C264.5,295.9 264.7,295.6 264.9,295.4 C265.9,295.5 266.7,295.5 267.5,295.5 Z M244.6,309.3 C244.4,309.5 244.2,309.8 244,310 C243.2,310 242.4,310 241.5,310 C241.2,309.8 241,309.5 240.7,309.3 C240.2,304.9 240.2,300.5 240.7,296.1 C241,295.9 241.2,295.6 241.5,295.4 C242.3,295.4 243.1,295.4 244,295.4 C244.2,295.6 244.4,295.9 244.6,296.1 C244.2,300.4 244.2,304.9 244.6,309.3 Z M252.5,309.4 C252.3,309.6 252,309.9 251.8,310.1 C251,310.1 250.2,310.1 249.3,310.1 C249.1,309.9 248.8,309.6 248.6,309.4 C248.5,304.9 248.5,300.5 248.6,296 C248.8,295.8 249.1,295.5 249.3,295.3 C250.1,295.3 250.9,295.3 251.8,295.3 C252,295.5 252.3,295.8 252.5,296 C252.6,300.4 252.6,304.9 252.5,309.4 Z M260.4,309.3 C260.1,309.5 259.9,309.8 259.6,310 C258.8,310 258,310 257.1,310 C256.9,309.8 256.7,309.5 256.5,309.3 C256.8,304.8 256.8,300.4 256.5,295.9 C256.7,295.7 256.9,295.4 257.1,295.2 C257.9,295.2 258.7,295.2 259.6,295.2 C259.9,295.4 260.1,295.7 260.4,295.9 C261,300.4 261,304.8 260.4,309.3 Z M378,224.1 C356.8,224.1 348,227.5 341.7,233.8 C337.2,238.3 334.8,243.7 334.8,248.1 C334.8,254.6 338.2,257 350.4,260 C363.3,263.3 365.9,263.9 365.9,266.7 C365.9,269.8 363,271.5 358.1,271.5 C353.6,271.5 351.5,270.1 351.5,267.9 C351.5,266.2 351.9,264.8 352.7,263.2 L323.8,263.2 C322.3,266.2 321.7,268.9 321.7,271.5 C321.7,280.4 329.2,284.5 354.9,284.5 C376.6,284.5 385.4,280.9 391.2,275 C395.9,270.3 398.3,264.8 398.3,259.4 C398.3,252.8 393.9,250.1 381.7,247.2 C369.5,244.3 367.2,243.6 367.2,241.5 C367.2,239.2 369.8,237 374.9,237 C379,237 381.3,238.5 381.3,240.5 C381.3,242.2 380.8,243.4 380.1,244.8 L408.3,244.8 C409.5,242.1 410,239.8 410,236.7 C410,227.9 401.4,224.1 378,224.1 Z M186.1,225.6 L150.7,225.6 L131.5,262.2 C128.9,267 126.9,269.6 123,269.6 C120.4,269.6 119.4,268.1 119.4,266.1 C119.4,264.7 120.1,262.7 121.1,260.9 L128.6,246.6 L98.4,246.6 L94.7,253.6 C91.5,259.4 90.2,263.2 90.2,268.5 C90.2,278.9 99.9,284.5 123.2,284.5 C140,284.5 151.2,281 158,274.2 C162.6,269.6 165.5,264.8 170,256.2 L186.1,225.6 Z M217.8,275.6 C225,271.8 232.3,269.8 238.2,268.8 L238.4,268.5 L202.3,268.5 L206.3,261.2 L241.5,261.2 L249,247.1 L213.7,247.1 L217.6,240.1 L252.5,240.1 L260.2,225.6 L191.9,225.6 L161.4,283 L206.1,283 C209.5,280.4 213.4,277.9 217.8,275.6 Z" id="Shape" fill="#FFFFFF" fill-rule="nonzero"></path>
        </g>
    </g>
</svg>